<?xml version="1.0" encoding="UTF-8"?>
<svg version="1.1" xmlns="http://www.w3.org/2000/svg" width="48" height="48">
<path d="M0 0 C4.68796317 2.8950501 8.77605467 6.42344712 10.234375 11.89453125 C11.16656452 18.74158704 11.3930195 24.99387098 7.671875 31.01953125 C3.66347868 35.99068326 0.31000422 38.47580101 -6.0078125 39.3359375 C-13.1275177 39.69575056 -18.34453314 39.19135672 -23.98828125 34.640625 C-29.08369757 29.63479842 -30.03494232 26.05750776 -30.390625 19.01953125 C-30.17838344 12.13997715 -28.58962241 7.80486419 -23.765625 2.89453125 C-17.29271618 -2.6344117 -7.84970384 -3.13766411 0 0 Z M-19.640625 6.39453125 C-22.44492489 9.69370759 -21.91909996 11.67396984 -21.765625 15.89453125 C-22.28125 16.38953125 -22.796875 16.88453125 -23.328125 17.39453125 C-23.8025 17.88953125 -24.276875 18.38453125 -24.765625 18.89453125 C-24.57425016 23.94018127 -24.57425016 23.94018127 -21.765625 27.89453125 C-20.96125 27.99765625 -20.156875 28.10078125 -19.328125 28.20703125 C-18.4825 28.43390625 -17.636875 28.66078125 -16.765625 28.89453125 C-16.3325 29.74015625 -15.899375 30.58578125 -15.453125 31.45703125 C-14.06005808 34.02850142 -14.06005808 34.02850142 -11.91015625 34.3984375 C-9.69114781 34.5237367 -7.91357288 34.47456781 -5.765625 33.89453125 C-4.08428212 31.5367853 -4.08428212 31.5367853 -2.765625 28.89453125 C-0.78673539 28.16759221 1.21392058 27.49636874 3.234375 26.89453125 C5.38940031 23.66199329 5.70293635 22.64302202 5.234375 18.89453125 C4.739375 18.44078125 4.244375 17.98703125 3.734375 17.51953125 C2.234375 15.89453125 2.234375 15.89453125 2.359375 12.45703125 C2.58680487 8.8251919 2.58680487 8.8251919 0.234375 6.39453125 C-3.17062195 4.69203277 -5.09643884 4.89294223 -8.78125 5.61328125 C-10.765625 5.89453125 -10.765625 5.89453125 -13.953125 5.20703125 C-16.88463866 4.6166849 -16.88463866 4.6166849 -19.640625 6.39453125 Z " fill="#000000" transform="translate(33.765625,5.10546875)"/>
<path d="M0 0 C3.11198065 1.49836105 6.0534615 3.19933758 9 5 C8.69078116 6.45903258 8.37751201 7.91720722 8.0625 9.375 C7.88847656 10.18710937 7.71445312 10.99921875 7.53515625 11.8359375 C7 14 7 14 6 16 C2.7 16 -0.6 16 -4 16 C-7 8.375 -7 8.375 -7 5 C-5.46875 3.61328125 -5.46875 3.61328125 -3.5 2.3125 C-2.8503125 1.87550781 -2.200625 1.43851563 -1.53125 0.98828125 C-1.0259375 0.66214844 -0.520625 0.33601563 0 0 Z " fill="#000000" transform="translate(23,16)"/>
</svg>
