<?xml version="1.0" encoding="UTF-8"?>
<svg version="1.1" xmlns="http://www.w3.org/2000/svg" width="500" height="500">
<path d="M0 0 C0.99435059 0.21430664 1.98870117 0.42861328 3.01318359 0.64941406 C23.03123189 5.12829346 41.95021167 12.29398175 60 22 C60.64743164 22.34111816 61.29486328 22.68223633 61.96191406 23.03369141 C77.84366043 31.42810535 92.11059575 41.72616534 105.50439453 53.671875 C106.86386528 54.87910988 108.24154184 56.06576468 109.62109375 57.25 C113.83350599 60.88702372 117.62563464 64.64972605 121.2109375 68.90625 C122.43041215 70.3334081 123.68792852 71.72871479 124.9765625 73.09375 C153.23557044 103.09967843 170.83973799 142.99390674 179 183 C179.24991699 184.18698486 179.24991699 184.18698486 179.50488281 185.39794922 C185.17673186 213.63389337 184.05870286 245.9519867 178 274 C177.67854004 275.49152588 177.67854004 275.49152588 177.35058594 277.01318359 C172.87293628 297.02573568 165.71662758 315.96005533 156 334 C155.47237061 334.99507568 155.47237061 334.99507568 154.93408203 336.01025391 C145.55589849 353.62437931 133.72306161 369.50527001 120 384 C119.4107373 384.62326172 118.82147461 385.24652344 118.21435547 385.88867188 C108.20890621 396.38309993 97.8082506 405.5937331 86 414 C85.12504883 414.64195312 85.12504883 414.64195312 84.23242188 415.296875 C68.78066094 426.61264894 50.99047509 435.69486522 33.125 442.5 C32.36541992 442.79672607 31.60583984 443.09345215 30.82324219 443.39916992 C27.61690896 444.53992708 25.50041241 445.12304096 22.15625 444.30078125 C17.5524109 441.52346527 14.41840972 437.74967123 12 433 C11.61473083 430.17713928 11.61473083 430.17713928 11.59936523 427.05493164 C11.58602646 425.87923111 11.57268768 424.70353058 11.5589447 423.49220276 C11.55877098 421.59533974 11.55877098 421.59533974 11.55859375 419.66015625 C11.53840307 417.6519498 11.5182021 415.64374339 11.49742985 413.63554287 C11.47178537 410.8222007 11.45925028 408.00886236 11.44702148 405.19543457 C11.42220261 399.63568916 11.38165857 394.07620161 11.32512093 388.51669121 C11.30911193 386.59728425 11.30540457 384.67778693 11.30210876 382.75831604 C11.09482051 358.25659787 4.05384673 336.74693359 -13.12109375 318.78125 C-20.10227636 312.11117179 -28.26440578 307.64903961 -38 307 C-38 306.34 -38 305.68 -38 305 C-36.92238403 304.89510254 -36.92238403 304.89510254 -35.82299805 304.78808594 C-3.04517977 301.5361834 28.26315249 295.99264512 54 274 C54.68578125 273.41605469 55.3715625 272.83210938 56.078125 272.23046875 C58.83337928 269.67999689 60.78998037 267.40869321 62.52294922 264.03637695 C64.39647452 260.51041405 66.15232263 257.81069454 69 255 C74.17229027 253.5284894 79.04335137 254.04856275 84.3125 254.5625 C85.81232677 254.66410448 87.31251271 254.76052544 88.81298828 254.85205078 C92.75307906 255.10847682 96.68287044 255.4417593 100.61541748 255.79388428 C103.74477965 256.06437638 106.87663706 256.28851655 110.00970459 256.51123047 C126.09927103 257.65899516 142.10067744 259.21514971 158 262 C158.33 259.03 158.66 256.06 159 253 C158.22906006 252.94521484 157.45812012 252.89042969 156.66381836 252.83398438 C147.053346 252.1260942 137.48439343 251.13866656 127.90429688 250.10546875 C114.65486805 248.70183745 101.4404825 247.86725896 88.125 247.4375 C86.85269531 247.39431641 85.58039063 247.35113281 84.26953125 247.30664062 C81.17975754 247.20209941 78.08992622 247.0999134 75 247 C73.91577404 243.74732213 74.00919366 242.99462862 75.0625 239.875 C75.28035156 239.17117188 75.49820312 238.46734375 75.72265625 237.7421875 C77 236 77 236 79.70315552 235.39920044 C82.85021333 235.01813701 85.8585341 234.87307172 89.02685547 234.87060547 C90.19602509 234.86745331 91.3651947 234.86430115 92.5697937 234.86105347 C93.82293365 234.8630777 95.07607361 234.86510193 96.3671875 234.8671875 C97.67470978 234.86623077 98.98223206 234.86527405 100.32937622 234.86428833 C103.09817691 234.86281684 105.86694527 234.86494483 108.63574219 234.86962891 C112.13652536 234.87527062 115.63723155 234.87199415 119.13801193 234.86617661 C146.8389504 234.82733899 146.8389504 234.82733899 160 236 C160 233.36 160 230.72 160 228 C149.3929856 227.22454315 138.85869744 226.86047639 128.21875 226.90234375 C126.78430227 226.90421649 125.34985388 226.90563632 123.91540527 226.90663147 C120.20019663 226.91038944 116.48502917 226.92015936 112.76983643 226.93133545 C108.9546362 226.94169699 105.13942909 226.94616016 101.32421875 226.95117188 C93.88279404 226.96179011 86.44140286 226.97878201 79 227 C79.03389328 226.370867 79.06778656 225.74173401 79.10270691 225.09353638 C79.25490211 222.211053 79.39899475 219.32821773 79.54296875 216.4453125 C79.59642456 215.45571533 79.64988037 214.46611816 79.70495605 213.4465332 C80.51163716 196.9215849 76.13123502 182.3977068 68 168 C67.42378906 167.4121875 66.84757812 166.824375 66.25390625 166.21875 C63.29412702 160.98150826 66.29480031 153.34209471 67.51147461 147.75708008 C71.3663251 129.78087211 72.47084432 113.22175607 63 97 C44.09123459 98.45118818 26.60214479 102.48501929 12.265625 115.77734375 C7.7323945 118.22372503 2.85864093 115.99850143 -1.8203125 114.66015625 C-3.58903838 114.12925618 -5.35724963 113.59663925 -7.125 113.0625 C-15.05227774 110.74727281 -22.75391425 108.78110405 -31 108 C-32.30195313 107.86722656 -33.60390625 107.73445313 -34.9453125 107.59765625 C-55.92818707 105.77690738 -78.59786053 107.82819077 -98.28125 115.66015625 C-103.5870469 117.57180366 -103.5870469 117.57180366 -107 117 C-108.89453125 115.75 -108.89453125 115.75 -110.8125 114 C-125.14156015 102.30426051 -142.77440496 97.62416421 -161 97 C-161.29777344 97.74507813 -161.59554687 98.49015625 -161.90234375 99.2578125 C-162.53492008 100.83812775 -163.17092834 102.41709786 -163.81640625 103.9921875 C-170.3444107 120.46599978 -166.30764977 139.35336834 -162.42919922 156.08935547 C-160.94968867 162.67561802 -162.8751242 165.82181403 -166.34765625 171.3125 C-169.04557267 175.70060047 -171.12427202 180.20716998 -173 185 C-173.39574219 186.00546875 -173.79148437 187.0109375 -174.19921875 188.046875 C-178.44372554 200.97400446 -177.36574365 214.5617343 -177 228 C-177.57453415 227.99777939 -178.1490683 227.99555878 -178.74101257 227.99327087 C-217.88264535 227.80256137 -217.88264535 227.80256137 -257 229 C-257 231.97 -257 234.94 -257 238 C-255.87078125 237.84660156 -254.7415625 237.69320312 -253.578125 237.53515625 C-238.70657307 235.69084961 -223.58759796 235.89838752 -208.625 235.875 C-207.87053589 235.8724118 -207.11607178 235.86982361 -206.33874512 235.86715698 C-195.85325569 235.83880473 -185.45670154 236.22181862 -175 237 C-174.01 240.3 -173.02 243.6 -172 247 C-173.53479004 247.05945801 -173.53479004 247.05945801 -175.10058594 247.12011719 C-194.17159328 247.87879657 -213.15772049 248.87879643 -232.125 251.0625 C-233.27180237 251.1942865 -233.27180237 251.1942865 -234.44177246 251.32873535 C-240.98385855 252.08858706 -247.50862486 252.87475399 -254 254 C-254 256.64 -254 259.28 -254 262 C-253.20231201 261.88930176 -252.40462402 261.77860352 -251.58276367 261.66455078 C-234.25737331 259.2838115 -216.95909455 257.06330516 -199.47998047 256.18896484 C-197.04254574 256.0566108 -194.60657367 255.89565745 -192.17236328 255.71337891 C-170.39308572 254.12752225 -170.39308572 254.12752225 -164.87646484 257.171875 C-161.13823903 260.48023205 -159.16127594 264.56808234 -157 269 C-139.61447737 291.15318368 -106.36690751 299.44231304 -80 303 C-72.68200225 303.8435468 -65.34696562 304.47168853 -58 305 C-58 305.66 -58 306.32 -58 307 C-58.61746094 307.08636719 -59.23492187 307.17273438 -59.87109375 307.26171875 C-71.75657198 309.23358652 -81.37866412 315.62838454 -88.71875 325.25390625 C-89.44578125 326.30384766 -89.44578125 326.30384766 -90.1875 327.375 C-94.08943422 332.82257576 -98.78086784 333.86402705 -105.078125 335.046875 C-112.76286618 336.28980646 -120.39790231 336.37215622 -128.1640625 336.37060547 C-130.628294 336.37500588 -133.09076764 336.41153066 -135.5546875 336.44921875 C-146.17874067 336.52635165 -155.56482937 335.98587679 -163.6875 328.25 C-164.91533203 327.08597656 -164.91533203 327.08597656 -166.16796875 325.8984375 C-170.39568872 321.64769909 -174.39107637 317.16953852 -178.44726562 312.75634766 C-183.15231034 307.71437186 -187.96840209 303.42364986 -194 300 C-194.65097656 299.6184375 -195.30195313 299.236875 -195.97265625 298.84375 C-198.37540093 297.84376378 -200.15879108 297.79878797 -202.75 297.875 C-203.54921875 297.89304687 -204.3484375 297.91109375 -205.171875 297.9296875 C-205.77515625 297.95289063 -206.3784375 297.97609375 -207 298 C-205.9171875 299.0828125 -205.9171875 299.0828125 -204.8125 300.1875 C-203.884375 301.115625 -202.95625 302.04375 -202 303 C-200.824375 304.11375 -200.824375 304.11375 -199.625 305.25 C-193.1868243 311.9947555 -188.8166933 318.72020009 -185.375 327.375 C-184.60732805 329.22939744 -183.83910437 331.08356658 -183.0703125 332.9375 C-182.71227539 333.8140625 -182.35423828 334.690625 -181.98535156 335.59375 C-176.97008596 347.84113795 -173.25000371 355.971607 -161 362 C-149.65788172 366.25329436 -136.79536912 365.12269241 -124.875 365.0625 C-123.13802212 365.05747515 -121.40104284 365.05291398 -119.6640625 365.04882812 C-115.44267312 365.03790014 -111.22135236 365.02068978 -107 365 C-106.99166939 373.71102315 -107.0157401 382.42119758 -107.0802784 391.13198757 C-107.10925337 395.17758384 -107.1273964 399.22260418 -107.12011719 403.26831055 C-107.11349134 407.178573 -107.13619068 411.0877007 -107.17855453 414.99772835 C-107.18962844 416.48348001 -107.19043776 417.96934756 -107.18042374 419.45510674 C-107.11821111 430.05033217 -108.70505215 436.55376792 -116.1875 444.25 C-130.29959331 448.01322488 -155.11847433 430.8378011 -167 424 C-181.52221054 415.22609356 -194.78786131 404.75365036 -207 393 C-207.62841797 392.39881348 -208.25683594 391.79762695 -208.90429688 391.17822266 C-240.62615781 360.67702385 -262.14608812 322.39701401 -272.6875 279.6875 C-272.97318848 278.55344727 -272.97318848 278.55344727 -273.26464844 277.39648438 C-277.17903539 260.71422795 -278.55738608 243.96666914 -278.4375 226.875 C-278.43445862 225.94522339 -278.43141724 225.01544678 -278.42828369 224.05749512 C-278.35304583 208.41403888 -277.32997436 193.33207371 -274 178 C-273.78569336 177.00709961 -273.57138672 176.01419922 -273.35058594 174.99121094 C-268.87200992 154.97125904 -261.70689646 136.05142148 -252 118 C-251.65888184 117.35256836 -251.31776367 116.70513672 -250.96630859 116.03808594 C-242.57189465 100.15633957 -232.27383466 85.88940425 -220.328125 72.49560547 C-219.12089012 71.13613472 -217.93423532 69.75845816 -216.75 68.37890625 C-213.11297628 64.16649401 -209.35027395 60.37436536 -205.09375 56.7890625 C-203.6665919 55.56958785 -202.27128521 54.31207148 -200.90625 53.0234375 C-170.90032157 24.76442956 -131.00609326 7.16026201 -91 -1 C-89.81301514 -1.24991699 -89.81301514 -1.24991699 -88.60205078 -1.50488281 C-60.36610663 -7.17673186 -28.0480133 -6.05870286 0 0 Z " fill="#000000" transform="translate(298,24)"/>
</svg>
